<svg width="60" height="60" viewBox="0 0 60 60" fill="none" xmlns="http://www.w3.org/2000/svg">
<mask id="mask0" mask-type="alpha" maskUnits="userSpaceOnUse" x="0" y="0" width="60" height="60">
<circle cx="30" cy="30" r="29.5" fill="#F82F2F" stroke="black"/>
</mask>
<g mask="url(#mask0)">
<circle cx="30" cy="30" r="30" fill="#E04141"/>
<path d="M9 7.26997L19.2317 1L24.9792 10.3791L14.7475 16.649L9 7.26997Z" fill="white"/>
<path d="M50.8215 53.379L40.5899 59.649L34.8424 50.27L45.0741 44L50.8215 53.379Z" fill="white"/>
<path d="M40.3158 1L50.8215 6.79902L45.5058 16.4293L35 10.6303L40.3158 1Z" fill="white"/>
<path d="M19.5058 59.649L9.00001 53.85L14.3158 44.2197L24.8216 50.0187L19.5058 59.649Z" fill="white"/>
<path d="M61 24L61 36L50 36L50 24L61 24Z" fill="white"/>
<path d="M0 36L-5.24537e-07 24L11 24L11 36L0 36Z" fill="white"/>
<path d="M28.156 26.56V25.54H30.58V34H29.428V26.56H28.156Z" fill="white"/>
</g>
</svg>
